HIERARCHY
ROOT Hips
{
	OFFSET 0.000000 0.000000 0.000000
	CHANNELS 6 Xposition Yposition Zposition Xrotation Yrotation Zrotation
	JOINT LeftUpLeg_virtual
	{
		OFFSET 0.000000 0.000000 0.000000
		CHANNELS 3 Xrotation Yrotation Zrotation
		JOINT LeftUpLeg
		{
			OFFSET 11.394100 -6.187798 -0.413800
			CHANNELS 3 Xrotation Yrotation Zrotation
			JOINT LeftLeg
			{
				OFFSET 0.430247 -32.302673 3.732800
				CHANNELS 3 Xrotation Yrotation Zrotation
				JOINT LeftFoot
				{
					OFFSET -0.430247 -48.264931 -6.423300
					CHANNELS 3 Xrotation Yrotation Zrotation
					JOINT LeftToeBase
					{
						OFFSET 4.230900 -16.068199 23.438400
						CHANNELS 3 Xrotation Yrotation Zrotation
						JOINT LeftToe_End
						{
							OFFSET 4.510700 0.695400 19.974600
							CHANNELS 3 Xrotation Yrotation Zrotation
							End Site
							{
								OFFSET 0 0 0
							}
						}
					}
				}
			}
		}
	}
	JOINT RightUpLeg_virtual
	{
		OFFSET 0.000000 0.000000 0.000000
		CHANNELS 3 Xrotation Yrotation Zrotation
		JOINT RightUpLeg
		{
			OFFSET -11.333700 -6.187798 -0.413800
			CHANNELS 3 Xrotation Yrotation Zrotation
			JOINT RightLeg
			{
				OFFSET -0.430392 -32.302628 3.733000
				CHANNELS 3 Xrotation Yrotation Zrotation
				JOINT RightFoot
				{
					OFFSET 0.430392 -48.264973 -6.423500
					CHANNELS 3 Xrotation Yrotation Zrotation
					JOINT RightToeBase
					{
						OFFSET -4.230900 -16.068199 23.438400
						CHANNELS 3 Xrotation Yrotation Zrotation
						JOINT RightToe_End
						{
							OFFSET -4.510700 0.695400 19.974600
							CHANNELS 3 Xrotation Yrotation Zrotation
							End Site
							{
								OFFSET 0 0 0
							}
						}
					}
				}
			}
		}
	}
	JOINT Spine_virtual
	{
		OFFSET 0.000000 0.000000 0.000000
		CHANNELS 3 Xrotation Yrotation Zrotation
		JOINT Spine
		{
			OFFSET -0.002400 12.777504 0.315300
			CHANNELS 3 Xrotation Yrotation Zrotation
			JOINT Spine1
			{
				OFFSET -0.002067 5.816869 0.032633
				CHANNELS 3 Xrotation Yrotation Zrotation
				JOINT Spine1_split
				{
					OFFSET -0.002067 5.816869 0.032633
					CHANNELS 3 Xrotation Yrotation Zrotation
					JOINT Spine2
					{
						OFFSET -0.002067 5.816869 0.032633
						CHANNELS 3 Xrotation Yrotation Zrotation
						JOINT Neck_virtual
						{
							OFFSET 0.000000 0.000000 0.000000
							CHANNELS 3 Xrotation Yrotation Zrotation
							JOINT Neck
							{
								OFFSET -0.003700 21.199493 -0.826900
								CHANNELS 3 Xrotation Yrotation Zrotation
								JOINT Head
								{
									OFFSET 0.000000 20.442200 4.834800
									CHANNELS 3 Xrotation Yrotation Zrotation
									JOINT HeadTop_End
									{
										OFFSET 0.000000 34.668396 4.968400
										CHANNELS 3 Xrotation Yrotation Zrotation
										End Site
										{
											OFFSET 0 0 0
										}
									}
								}
							}
						}
						JOINT LeftShoulder_virtual
						{
							OFFSET 0.000000 0.000000 0.000000
							CHANNELS 3 Xrotation Yrotation Zrotation
							JOINT LeftShoulder
							{
								OFFSET 3.288150 8.794197 -1.372250
								CHANNELS 3 Xrotation Yrotation Zrotation
								JOINT LeftShoulder_split
								{
									OFFSET 3.288150 8.794197 -1.372250
									CHANNELS 3 Xrotation Yrotation Zrotation
									JOINT LeftArm
									{
										OFFSET 11.953299 -2.279007 -0.146200
										CHANNELS 3 Xrotation Yrotation Zrotation
										JOINT LeftForeArm
										{
											OFFSET 18.448900 0.000000 0.000000
											CHANNELS 3 Xrotation Yrotation Zrotation
											JOINT LeftHand
											{
												OFFSET 29.527798 0.000000 0.000000
												CHANNELS 3 Xrotation Yrotation Zrotation
												End Site
												{
													OFFSET 0 0 0
												}
											}
										}
									}
								}
							}
						}
						JOINT RightShoulder_virtual
						{
							OFFSET 0.000000 0.000000 0.000000
							CHANNELS 3 Xrotation Yrotation Zrotation
							JOINT RightShoulder
							{
								OFFSET -3.249400 8.794197 -1.372250
								CHANNELS 3 Xrotation Yrotation Zrotation
								JOINT RightShoulder_split
								{
									OFFSET -3.249400 8.794197 -1.372250
									CHANNELS 3 Xrotation Yrotation Zrotation
									JOINT RightArm
									{
										OFFSET -11.953299 -2.279007 -0.146200
										CHANNELS 3 Xrotation Yrotation Zrotation
										JOINT RightForeArm
										{
											OFFSET -18.448900 0.000000 0.000000
											CHANNELS 3 Xrotation Yrotation Zrotation
											JOINT RightHand
											{
												OFFSET -29.527802 0.000000 0.000000
												CHANNELS 3 Xrotation Yrotation Zrotation
												End Site
												{
													OFFSET 0 0 0
												}
											}
										}
									}
								}
							}
						}
					}
				}
			}
		}
	}
}
MOTION
Frames: 11
Frame Time: 0.03333333
-4.438721 94.789818 -17.886669 0.000000 0.000000 0.000000 174.419577 54.161727 -178.326185 -29.002004 -6.804100 6.724933 30.154230 -10.781022 0.072654 2.252482 2.690591 -16.314043 5.900864 -5.053704 9.336787 0.000000 0.000000 0.000000 172.041004 47.932652 -175.259130 -3.364483 -10.982866 -5.147652 33.573890 2.750176 0.081793 -19.862298 -2.600857 20.297017 -6.737911 6.816564 -5.480652 0.000000 0.000000 0.000000 170.794057 52.403199 -177.837349 0.310836 -8.264235 13.507652 2.883074 -0.571680 0.013968 0.094773 -0.637526 -0.078509 0.000000 0.000000 0.000000 5.009656 3.592162 1.550144 34.388510 -5.099838 -5.842833 114.064159 -62.109724 -44.103515 0.000000 0.000000 0.000000 1.841306 1.257505 -2.068092 5.395943 -7.034946 -28.545492 4.079841 -19.032505 5.719776 -19.749781 36.261249 -22.659991 -13.051243 -60.708531 -5.988356 0.000000 0.000000 0.000000 1.335949 1.131186 2.268476 -12.008715 -9.079559 4.266992 15.628072 3.018452 -16.062532 -26.134076 -2.821694 42.371188 -9.179783 16.727447 -0.020673 0.000000 0.000000 0.000000 
-4.632459 94.802307 -16.483353 0.000000 0.000000 0.000000 174.041840 51.338519 -178.100557 -28.166918 -4.934909 7.705730 30.282135 -10.367313 -0.793755 0.888260 4.224920 -15.178402 4.369066 -5.622431 9.557927 0.000000 0.000000 0.000000 171.876342 47.557829 -175.658491 -5.661630 -8.875173 -5.278542 32.585504 2.652901 -0.374645 -22.786419 -2.226682 17.289067 2.832790 6.426134 -6.734240 0.000000 0.000000 0.000000 171.260710 51.042673 -178.061106 -0.649754 -8.257585 13.703771 2.850526 -0.134830 -0.004314 0.185728 0.001854 -0.035367 0.000000 0.000000 0.000000 4.271076 3.671594 1.294487 33.827127 -5.293791 -6.180182 116.694410 -60.820041 -36.671470 0.000000 0.000000 0.000000 1.819722 1.485485 -1.984117 4.509589 -7.528328 -26.880367 7.516012 -14.822499 4.508834 -19.193132 37.741122 -24.788695 -12.468976 -55.410480 -4.509526 0.000000 0.000000 0.000000 1.647111 1.649980 1.579345 -11.398460 -4.380439 6.242428 17.835471 10.125871 -19.964298 -26.726272 -0.650129 42.221962 -8.764915 13.312747 -0.887982 0.000000 0.000000 0.000000 
-5.324844 93.788849 -15.595631 0.000000 0.000000 0.000000 173.818984 49.949484 -177.704693 -27.910436 -1.248853 9.594172 32.688500 -9.993253 -1.941596 -1.802263 7.337081 -13.775431 3.781920 -6.040099 8.995993 0.000000 0.000000 0.000000 171.689140 48.741787 -175.702710 -14.500773 -6.868361 -6.630064 36.213451 4.868973 -1.184738 -22.102431 0.314606 18.279364 7.940687 6.548087 -13.437414 0.000000 0.000000 0.000000 172.246606 50.618990 -178.514876 -1.510340 -7.872980 13.499946 2.927259 0.389733 -0.329148 0.317960 0.287652 -0.020740 0.000000 0.000000 0.000000 3.296059 4.025353 0.689474 32.498129 -5.044897 -7.840358 114.331595 -57.405042 -29.434779 0.000000 0.000000 0.000000 1.834096 1.873944 -1.975905 3.187803 -9.174676 -24.368571 9.555879 -12.521718 4.773343 -14.835555 38.940541 -27.051408 -11.397663 -45.434832 -2.298228 0.000000 0.000000 0.000000 1.756219 2.286973 0.663682 -10.777677 0.868576 8.642119 18.398501 9.820603 -21.434645 -25.487788 11.126767 39.642329 -7.634718 6.129964 -2.511770 0.000000 0.000000 0.000000 
-6.299745 92.001610 -15.622276 0.000000 0.000000 0.000000 173.355542 49.728804 -176.915164 -28.012689 3.918574 11.476086 37.013202 -9.107280 -3.127102 -7.613959 11.753882 -11.187752 4.032627 -6.420139 8.382288 0.000000 0.000000 0.000000 171.226286 50.181717 -174.926759 -28.212341 -4.869264 -8.569338 43.501594 8.259127 -2.492228 -19.355108 4.235464 21.074725 8.513336 7.118920 -22.845260 0.000000 0.000000 0.000000 172.722466 51.345134 -178.065559 -2.274442 -7.310219 12.772237 3.304156 0.847795 -0.849760 0.311243 0.330296 0.030472 0.000000 0.000000 0.000000 2.559640 4.514650 0.021212 30.577746 -3.940840 -10.430472 106.927335 -51.920762 -25.219058 0.000000 0.000000 0.000000 1.963094 2.365398 -1.977327 2.013081 -11.341659 -21.502212 10.346994 -12.373737 6.024989 -7.539631 39.772345 -28.796269 -10.931590 -35.103788 -0.785270 0.000000 0.000000 0.000000 1.651993 2.774154 -0.188701 -10.180276 5.214758 10.752966 15.654411 4.226398 -19.875490 -20.460216 28.063487 34.171539 -6.525888 -1.146922 -4.254201 0.000000 0.000000 0.000000 
-7.432793 89.716812 -15.827415 0.000000 0.000000 0.000000 172.307778 49.567701 -175.246986 -28.402000 8.849451 12.919849 42.209077 -8.111259 -3.915468 -16.372334 16.278716 -8.270411 4.437953 -6.733520 8.024394 0.000000 0.000000 0.000000 170.536928 51.314900 -173.782238 -44.314674 -3.396980 -10.619473 51.611197 11.080118 -4.038238 -15.608468 8.278779 22.100684 8.699520 7.829717 -31.738386 0.000000 0.000000 0.000000 171.849513 52.594615 -176.021433 -2.831554 -6.644355 11.525173 3.843023 0.923790 -1.344343 0.106069 0.210024 0.170429 0.000000 0.000000 0.000000 2.356239 4.690436 -0.459662 27.817902 -2.433141 -13.321795 96.648673 -44.598133 -23.573739 0.000000 0.000000 0.000000 2.216980 2.688367 -1.861342 1.499295 -13.246478 -18.325097 9.864586 -12.754938 6.471343 1.519889 40.852639 -29.752820 -11.023938 -29.055789 -0.019311 0.000000 0.000000 0.000000 1.627332 2.780392 -0.705036 -9.583082 8.022890 12.467617 11.588084 -1.078248 -18.089976 -10.042575 43.003527 24.970130 -5.997719 -6.524590 -5.778160 0.000000 0.000000 0.000000 
-8.940052 87.075447 -15.498524 0.000000 0.000000 0.000000 170.537434 49.226423 -172.709953 -30.338191 11.669122 14.240755 47.836954 -7.573993 -3.853348 -24.745559 19.807926 -7.114588 4.516289 -6.993710 8.041171 0.000000 0.000000 0.000000 169.470326 52.112598 -172.244721 -60.038982 -2.810380 -12.661272 58.770288 12.495195 -5.132348 -10.931400 11.514876 20.113316 10.490931 8.061761 -37.812972 0.000000 0.000000 0.000000 168.859283 53.723895 -171.859075 -2.808305 -5.989807 9.922218 4.393712 0.470319 -1.627967 -0.065109 0.121415 0.152244 0.000000 0.000000 0.000000 2.950961 4.334526 -0.616095 24.503005 -0.711097 -15.773089 86.243166 -35.578466 -23.202453 0.000000 0.000000 0.000000 2.740420 2.592219 -1.613809 1.902976 -13.756237 -14.812662 9.036224 -14.645420 6.130742 9.998299 42.714220 -29.977212 -11.464445 -29.962834 0.066790 0.000000 0.000000 0.000000 2.213472 2.294395 -0.823706 -8.973678 8.702935 13.219802 8.339384 -3.389701 -16.152479 3.245637 50.405003 13.734827 -6.376239 -10.396823 -7.148855 0.000000 0.000000 0.000000 
-10.345353 84.469818 -14.662453 0.000000 0.000000 0.000000 168.198053 48.890224 -169.871354 -34.360769 11.575166 15.741643 54.587388 -7.846969 -2.910300 -29.105321 21.996488 -8.405561 4.055640 -7.471275 7.715298 0.000000 0.000000 0.000000 167.853784 51.994340 -170.303691 -73.413721 -2.573931 -14.483261 64.582615 12.725549 -5.715938 -4.983219 13.464722 16.278190 10.730841 9.037583 -40.548999 0.000000 0.000000 0.000000 163.817361 54.245803 -165.533828 -2.027077 -5.190498 8.120332 5.127882 -0.320402 -1.545477 -0.135085 0.126184 0.058778 0.000000 0.000000 0.000000 4.418344 3.549315 -0.285392 20.604876 0.901019 -16.782963 77.217795 -26.288172 -22.317855 0.000000 0.000000 0.000000 3.627583 2.200033 -1.437910 2.891036 -12.624759 -11.607866 8.975908 -18.522059 5.463277 17.594965 45.951491 -30.407275 -11.739982 -38.865593 -0.318252 0.000000 0.000000 0.000000 3.566046 1.535380 -0.616665 -8.474708 7.402821 13.494584 4.826089 -2.764565 -14.967449 10.406023 49.424833 8.412857 -8.098528 -14.165108 -8.388372 0.000000 0.000000 0.000000 
-11.403754 81.901047 -13.894611 0.000000 0.000000 0.000000 165.745947 48.726833 -167.168306 -41.005112 7.444776 17.433303 62.433782 -9.505234 -0.788316 -27.656826 22.342589 -12.801623 1.229801 -8.428467 7.223728 0.000000 0.000000 0.000000 165.594508 51.222833 -167.929954 -83.241544 -2.277107 -15.749605 69.144457 12.291246 -6.238539 0.452259 13.912921 12.832127 8.711607 11.253106 -40.633533 0.000000 0.000000 0.000000 157.941185 53.771579 -158.890513 -0.222708 -4.046519 6.331159 6.126670 -1.171386 -1.096990 -0.177267 0.206484 -0.019678 0.000000 0.000000 0.000000 6.723775 2.531745 0.402913 16.238003 2.183345 -16.060710 69.725529 -18.095128 -20.421016 0.000000 0.000000 0.000000 4.733341 1.577823 -1.546494 4.009888 -10.375471 -9.345215 9.268162 -22.032775 3.965984 24.870537 50.893283 -32.177923 -11.281215 -52.620768 -0.316159 0.000000 0.000000 0.000000 5.735186 0.955730 -0.187871 -8.327584 4.376732 13.670002 1.213964 -0.383478 -14.511860 7.979581 42.248343 11.070673 -11.472272 -18.956886 -9.518057 0.000000 0.000000 0.000000 
-12.042577 78.906281 -13.715046 0.000000 0.000000 0.000000 163.479321 48.691367 -165.065168 -49.218470 0.262453 18.314196 70.798783 -11.319356 2.009981 -22.763166 20.633711 -17.905846 -4.893286 -10.030271 6.202361 0.000000 0.000000 0.000000 162.799307 50.680273 -165.061548 -89.742716 -1.436127 -16.546786 73.419664 11.582136 -7.181732 2.881884 13.619138 11.293075 8.266161 13.288605 -38.667391 0.000000 0.000000 0.000000 152.451052 52.945526 -153.564072 2.706516 -2.593633 4.494072 7.525592 -1.862047 -0.334464 -0.047272 0.224359 -0.139712 0.000000 0.000000 0.000000 9.660731 1.665118 1.250549 11.339548 3.591038 -13.380491 62.959331 -11.488167 -18.050797 0.000000 0.000000 0.000000 6.001213 0.931858 -2.036549 4.816501 -7.944229 -8.820288 8.358006 -21.854355 2.165617 31.230791 56.502474 -34.921781 -8.390139 -64.903838 1.900346 0.000000 0.000000 0.000000 8.502682 0.877731 0.271107 -8.560896 -0.706943 13.694935 -1.910119 2.151448 -14.676051 0.125633 30.579030 16.753785 -16.361704 -24.287955 -10.669635 0.000000 0.000000 0.000000 
-12.107206 75.493584 -13.956337 0.000000 0.000000 0.000000 161.599667 48.695468 -163.578564 -57.475830 -7.253905 18.496149 79.236615 -12.650272 4.580122 -18.045295 17.880561 -21.355795 -13.807771 -11.883532 4.033083 0.000000 0.000000 0.000000 160.106246 50.456100 -162.380767 -93.705168 0.500593 -16.818263 78.380280 10.423570 -8.544311 0.794167 12.908459 11.859805 12.405152 14.199927 -35.527598 0.000000 0.000000 0.000000 148.714091 52.092111 -150.990539 6.654837 -1.071251 2.489766 9.327734 -2.301897 0.700309 0.058297 -0.056658 -0.018592 0.000000 0.000000 0.000000 13.107880 1.328842 2.138903 5.670575 5.309218 -8.763356 56.501374 -7.818524 -15.027772 0.000000 0.000000 0.000000 7.557755 0.376855 -2.832558 5.170834 -6.444824 -10.420175 5.873858 -17.136344 -0.293316 36.541109 62.088749 -37.491325 -2.229883 -70.298356 7.722185 0.000000 0.000000 0.000000 11.249681 1.210107 0.792954 -9.233812 -7.695070 13.984170 -5.322870 4.243371 -14.546602 -8.841513 18.528444 22.386409 -22.116687 -28.812480 -11.795191 0.000000 0.000000 0.000000 
-12.000723 71.766174 -14.909283 0.000000 0.000000 0.000000 160.321151 49.015927 -162.883127 -65.066793 -13.185944 19.036610 87.625918 -14.154482 6.759610 -14.134107 14.703575 -24.535431 -23.441605 -13.328027 1.922179 0.000000 0.000000 0.000000 158.082406 50.059727 -160.296002 -94.871491 3.388474 -16.316738 83.467261 8.208524 -9.457355 -6.190635 11.097188 14.325429 17.663591 15.060530 -32.283111 0.000000 0.000000 0.000000 147.370907 51.404588 -151.827893 11.651994 0.066570 0.377844 11.430080 -2.467504 1.837050 -0.005554 -0.669203 0.357476 0.000000 0.000000 0.000000 16.452754 1.645734 2.839653 -0.274854 7.566932 -3.033985 50.287326 -7.361449 -12.366394 0.000000 0.000000 0.000000 9.287181 -0.065449 -3.746270 4.985486 -6.302688 -14.233978 1.692226 -10.618436 -2.787523 38.918517 66.627259 -36.990327 -0.271777 -67.488443 10.142371 0.000000 0.000000 0.000000 13.460750 1.942864 1.434856 -10.527049 -15.609071 14.229382 -8.815230 5.261869 -13.708791 -15.643486 12.337201 28.583268 -27.699224 -31.384992 -12.416041 0.000000 0.000000 0.000000 
